{"title":"Chelsea S01E03 WEBRip x264","uid":14609603,"size":326385067,"categoryP":"video","categoryS":"tv_shows","magnet":"?xt=urn:btih:cdffda984c664b9fa5c7b7e81bbdd75f8941fbe1&amp;dn=Chelsea+S01E03+WEBRip+x264&amp;tr=udp%3A%2F%2Ftracker.leechers-paradise.org%3A6969&amp;tr=udp%3A%2F%2Fzer0day.ch%3A1337&amp;tr=udp%3A%2F%2Fopen.demonii.com%3A1337&amp;tr=udp%3A%2F%2Ftracker.coppersurfer.tk%3A6969&amp;tr=udp%3A%2F%2Fexodus.desync.com%3A6969","seeders":0,"leechers":0,"uploader":"TheRival","files":1,"time":1463134087,"description":"Screens: \nhttp://extraimago.com/image/abrl \nhttp://extraimago.com/image/abrI \nhttp://extraimago.com/image/abrd\r\n \nhttp://www.tvmaze.com/shows/16628/chelsea\r\n\r\nVideo\r\nID : 1\r\nFormat : AVC\r\nFormat/Info : Advanced Video Codec\r\nFormat profile :   \r\nFormat settings, CABAC : Yes\r\nFormat settings, ReFrames : 1 frame\r\nFormat settings, GOP : M=3, N=24\r\nMuxing mode : Container   \r\nCodec ID : avc1\r\nCodec ID/Info : Advanced Video Coding\r\nDuration : 33mn 8s\r\nBit rate mode : Variable\r\nBit rate : 1 179 Kbps\r\nMaximum bit rate : 1 800 Kbps\r\nWidth : 720 pixels\r\nHeight : 404 pixels\r\nDisplay aspect ratio : 16:9\r\nFrame rate mode : Constant\r\nFrame rate : 25.000 fps\r\nColor space : YUV\r\nChroma subsampling : 4:2:0\r\nBit depth : 8 bits\r\nScan type : Progressive\r\nBits/(Pixel*Frame) : 0.162\r\nStream size : 279 MiB (90%)\r\nLanguage : English\r\n\r\nAudio\r\nID : 2\r\nFormat : AAC\r\nFormat/Info : Advanced Audio Codec\r\nFormat profile : LC\r\nCodec ID : 40\r\nDuration : 33mn 8s\r\nBit rate mode : Constant\r\nBit rate : 128 Kbps\r\nChannel(s) : 2 channels\r\nChannel positions : Front: L R\r\nSampling rate : 48.0 KHz\r\nFrame rate : 46.875 fps (1024 spf)\r\nCompression mode : Lossy\r\nStream size : 30.3 MiB (10%)\r\nTitle : Stereo\r\nLanguage : English\r\nDefault : Yes\r\nAlternate group : 1","torrent":{"xt":"urn:btih:cdffda984c664b9fa5c7b7e81bbdd75f8941fbe1","amp;dn":"Chelsea+S01E03+WEBRip+x264","amp;tr":["udp%3A%2F%2Ftracker.leechers-paradise.org%3A6969","udp%3A%2F%2Fzer0day.ch%3A1337","udp%3A%2F%2Fopen.demonii.com%3A1337","udp%3A%2F%2Ftracker.coppersurfer.tk%3A6969","udp%3A%2F%2Fexodus.desync.com%3A6969"],"infoHash":"cdffda984c664b9fa5c7b7e81bbdd75f8941fbe1","infoHashBuffer":{"type":"Buffer","data":[205,255,218,152,76,102,75,159,165,199,183,232,27,189,215,95,137,65,251,225]},"announce":[],"urlList":[]}}